<svg width="148" height="130" viewBox="0 0 148 130" fill="none" xmlns="http://www.w3.org/2000/svg">
<path d="M65.6448 18.9195C67.5559 25.226 67.6514 30.9591 65.9315 36.119C64.0204 41.4699 60.7716 45.0054 56.1851 46.7254C51.4074 48.0631 46.7253 47.2031 42.1388 44.1454C37.5523 40.8966 34.1124 36.119 31.8191 29.8125C29.908 23.506 29.8125 17.7728 31.5324 12.613C33.4435 7.26202 36.6923 3.72656 41.2788 2.00661C46.0565 0.668869 50.7386 1.6244 55.3251 4.8732C59.9116 7.93089 63.3515 12.613 65.6448 18.9195ZM29.2392 49.3053C31.9146 54.0829 33.0613 58.765 32.6791 63.3516C32.1058 67.747 30.0036 71.0913 26.3726 73.3846C22.7416 75.2957 18.8239 75.2957 14.6196 73.3846C10.4153 71.6647 6.87979 68.4159 4.01321 63.6382C1.33773 58.8606 0.286645 54.1785 0.859962 49.5919C1.24217 45.1965 3.24878 41.8522 6.87979 39.5589C10.5108 37.6478 14.4285 37.6478 18.6328 39.5589C22.8371 41.2788 26.3726 44.5276 29.2392 49.3053ZM20.3527 107.21C25.5126 93.8329 31.5324 83.4177 38.4122 75.9645C45.1009 68.7025 51.6941 63.6382 58.1917 60.7716C64.4982 57.7139 69.7536 56.2806 73.9579 56.4718C78.1622 56.2806 83.4177 57.7139 89.7241 60.7716C96.2217 63.6382 102.815 68.7025 109.504 75.9645C116.383 83.4177 122.403 93.8329 127.563 107.21C128.519 110.077 128.996 113.039 128.996 116.097V116.383C128.996 120.206 127.659 123.359 124.983 125.843C122.499 128.519 119.346 129.856 115.523 129.856C112.275 129.856 109.026 129.474 105.777 128.71L80.5511 122.403C76.1556 121.257 71.7602 121.257 67.3648 122.403L42.1388 128.71C38.89 129.474 35.6412 129.856 32.3924 129.856C28.5703 129.856 25.4171 128.519 22.9327 125.843C20.2572 123.359 18.9195 120.206 18.9195 116.383V116.097C18.9195 113.039 19.3972 110.077 20.3527 107.21ZM121.543 73.3846C117.912 71.0913 115.81 67.747 115.237 63.3516C114.855 58.765 116.001 54.0829 118.677 49.3053C121.543 44.5276 125.079 41.2788 129.283 39.5589C133.487 37.6478 137.405 37.6478 141.036 39.5589C144.667 41.8522 146.674 45.1965 147.056 49.5919C147.629 54.1785 146.578 58.8606 143.903 63.6382C141.036 68.4159 137.501 71.6647 133.296 73.3846C129.092 75.2957 125.174 75.2957 121.543 73.3846ZM89.4375 46.7254C84.8509 45.0054 81.6021 41.4699 79.6911 36.119C77.9711 30.9591 78.1622 25.226 80.2644 18.9195C82.3666 12.613 85.7109 7.93089 90.2975 4.8732C94.884 1.6244 99.5661 0.668869 104.344 2.00661C108.93 3.72656 112.179 7.26202 114.09 12.613C115.81 17.7728 115.715 23.506 113.803 29.8125C111.51 36.119 108.07 40.8966 103.484 44.1454C98.8972 47.2031 94.2151 48.0631 89.4375 46.7254Z" fill="#ADD8E6"/>
</svg>
